# xmcd
#
# Track frame offsets:
# 183
# 9470
# 15673
# 30463
# 41100
# 57378
# 67438
# 90590
# 103538
# 120500
# 131370
# 145690
# 158665
# 175145
#
# Disc length: 2465 seconds
#
#
# Revision: 0
# Processed by: cddbd v1.5.1PL0 Copyright (c) Steve Scherf et al.
# Submitted via: FreeRIP 2.93 
#
DISCID=b3099f0e
DTITLE=Mix - Na vandru je sranda
DYEAR=1900
DGENRE=Country
TTITLE0=U Dakoty nahore
TTITLE1=Vozralej vlak
TTITLE2=Umrel starej kormidelnik
TTITLE3=Osado, osado
TTITLE4=Paroplavecka
TTITLE5=Serif Tobbi
TTITLE6=Zeny, zeny
TTITLE7=Velrybarska vyprava
TTITLE8=Houby, houby
TTITLE9=Uz nejsi Nevado
TTITLE10=Johnyho kobyla
TTITLE11=Prodam boudu
TTITLE12=Babicka Dalila
TTITLE13=Blacky Joe
EXTD=
EXTT0=
EXTT1=
EXTT2=
EXTT3=
EXTT4=
EXTT5=
EXTT6=
EXTT7=
EXTT8=
EXTT9=
EXTT10=
EXTT11=
EXTT12=
EXTT13=
PLAYORDER=
